<mxfile host="65bd71144e">
    <diagram id="-efN26DmWn6YFlHiBJfu" name="Visáo Geral - Domínio">
        <mxGraphModel dx="473" dy="619" grid="1" gridSize="10" guides="1" tooltips="1" connect="1" arrows="1" fold="1" page="1" pageScale="1" pageWidth="850" pageHeight="1100" math="0" shadow="0">
            <root>
                <mxCell id="0"/>
                <mxCell id="1" parent="0"/>
                <mxCell id="2" value="Ecommerce ABC" style="shape=umlFrame;whiteSpace=wrap;html=1;width=120;height=30;boundedLbl=1;verticalAlign=middle;align=left;spacingLeft=5;" parent="1" vertex="1">
                    <mxGeometry x="260" y="10" width="340" height="450" as="geometry"/>
                </mxCell>
                <mxCell id="9" style="edgeStyle=none;html=1;exitX=0.5;exitY=0.5;exitDx=0;exitDy=0;exitPerimeter=0;entryX=0.5;entryY=0.5;entryDx=0;entryDy=0;entryPerimeter=0;endArrow=block;endFill=1;" parent="1" source="3" target="7" edge="1">
                    <mxGeometry relative="1" as="geometry"/>
                </mxCell>
                <mxCell id="3" value="Administrador" style="shape=umlActor;verticalLabelPosition=bottom;verticalAlign=top;html=1;" parent="1" vertex="1">
                    <mxGeometry x="180" y="330" width="30" height="60" as="geometry"/>
                </mxCell>
                <mxCell id="8" style="edgeStyle=none;html=1;exitX=0.5;exitY=0.5;exitDx=0;exitDy=0;exitPerimeter=0;entryX=0.7;entryY=0.381;entryDx=0;entryDy=0;entryPerimeter=0;endArrow=block;endFill=1;" parent="1" source="6" target="7" edge="1">
                    <mxGeometry relative="1" as="geometry"/>
                </mxCell>
                <mxCell id="6" value="Cliente" style="shape=umlActor;verticalLabelPosition=bottom;verticalAlign=top;html=1;" parent="1" vertex="1">
                    <mxGeometry x="170" y="60" width="30" height="60" as="geometry"/>
                </mxCell>
                <mxCell id="7" value="Usuário" style="shape=umlActor;verticalLabelPosition=bottom;verticalAlign=top;html=1;" parent="1" vertex="1">
                    <mxGeometry x="60" y="210" width="30" height="60" as="geometry"/>
                </mxCell>
                <mxCell id="10" value="" style="shape=ellipse;container=1;horizontal=1;horizontalStack=0;resizeParent=1;resizeParentMax=0;resizeLast=0;html=1;dashed=0;collapsible=0;" parent="1" vertex="1">
                    <mxGeometry x="300" y="50" width="280" height="60" as="geometry"/>
                </mxCell>
                <mxCell id="11" value="Gerenciar Usuario" style="html=1;strokeColor=none;fillColor=none;align=center;verticalAlign=middle;rotatable=0;" parent="10" vertex="1">
                    <mxGeometry y="22.5" width="280.00000000000006" height="15" as="geometry"/>
                </mxCell>
                <mxCell id="15" value="" style="shape=ellipse;container=1;horizontal=1;horizontalStack=0;resizeParent=1;resizeParentMax=0;resizeLast=0;html=1;dashed=0;collapsible=0;" parent="1" vertex="1">
                    <mxGeometry x="300" y="130" width="280" height="60" as="geometry"/>
                </mxCell>
                <mxCell id="16" value="Gerenciar Carrinho" style="html=1;strokeColor=none;fillColor=none;align=center;verticalAlign=middle;rotatable=0;" parent="15" vertex="1">
                    <mxGeometry y="22.5" width="280.00000000000006" height="15" as="geometry"/>
                </mxCell>
                <mxCell id="17" value="" style="shape=ellipse;container=1;horizontal=1;horizontalStack=0;resizeParent=1;resizeParentMax=0;resizeLast=0;html=1;dashed=0;collapsible=0;" parent="1" vertex="1">
                    <mxGeometry x="300" y="210" width="280" height="60" as="geometry"/>
                </mxCell>
                <mxCell id="18" value="Gerenciar Pedido" style="html=1;strokeColor=none;fillColor=none;align=center;verticalAlign=middle;rotatable=0;" parent="17" vertex="1">
                    <mxGeometry y="22.5" width="280.00000000000006" height="15" as="geometry"/>
                </mxCell>
                <mxCell id="19" value="" style="shape=ellipse;container=1;horizontal=1;horizontalStack=0;resizeParent=1;resizeParentMax=0;resizeLast=0;html=1;dashed=0;collapsible=0;" parent="1" vertex="1">
                    <mxGeometry x="300" y="290" width="280" height="60" as="geometry"/>
                </mxCell>
                <mxCell id="20" value="Gerenciar Produto" style="html=1;strokeColor=none;fillColor=none;align=center;verticalAlign=middle;rotatable=0;" parent="19" vertex="1">
                    <mxGeometry y="22.5" width="280.00000000000006" height="15" as="geometry"/>
                </mxCell>
                <mxCell id="21" value="" style="shape=ellipse;container=1;horizontal=1;horizontalStack=0;resizeParent=1;resizeParentMax=0;resizeLast=0;html=1;dashed=0;collapsible=0;" parent="1" vertex="1">
                    <mxGeometry x="300" y="370" width="280" height="60" as="geometry"/>
                </mxCell>
                <mxCell id="22" value="Gerenciar&amp;nbsp; Categoria" style="html=1;strokeColor=none;fillColor=none;align=center;verticalAlign=middle;rotatable=0;" parent="21" vertex="1">
                    <mxGeometry y="22.5" width="280.00000000000006" height="15" as="geometry"/>
                </mxCell>
                <mxCell id="23" style="edgeStyle=none;html=1;exitX=0;exitY=0.5;exitDx=0;exitDy=0;entryX=0.5;entryY=0.5;entryDx=0;entryDy=0;entryPerimeter=0;endArrow=none;endFill=0;" parent="1" source="11" target="6" edge="1">
                    <mxGeometry relative="1" as="geometry"/>
                </mxCell>
                <mxCell id="24" style="edgeStyle=none;html=1;exitX=0;exitY=0.5;exitDx=0;exitDy=0;entryX=0.5;entryY=0.5;entryDx=0;entryDy=0;entryPerimeter=0;endArrow=none;endFill=0;" parent="1" source="11" target="3" edge="1">
                    <mxGeometry relative="1" as="geometry"/>
                </mxCell>
                <mxCell id="25" style="edgeStyle=none;html=1;exitX=0;exitY=0.75;exitDx=0;exitDy=0;entryX=0.5;entryY=0.5;entryDx=0;entryDy=0;entryPerimeter=0;endArrow=none;endFill=0;" parent="1" source="16" target="6" edge="1">
                    <mxGeometry relative="1" as="geometry"/>
                </mxCell>
                <mxCell id="27" style="edgeStyle=none;html=1;exitX=0;exitY=0.5;exitDx=0;exitDy=0;entryX=0.5;entryY=0.5;entryDx=0;entryDy=0;entryPerimeter=0;endArrow=none;endFill=0;" parent="1" source="18" target="3" edge="1">
                    <mxGeometry relative="1" as="geometry"/>
                </mxCell>
                <mxCell id="28" style="edgeStyle=none;html=1;exitX=0;exitY=0.5;exitDx=0;exitDy=0;entryX=0.5;entryY=0.5;entryDx=0;entryDy=0;entryPerimeter=0;endArrow=none;endFill=0;" parent="1" source="20" target="3" edge="1">
                    <mxGeometry relative="1" as="geometry"/>
                </mxCell>
                <mxCell id="30" style="edgeStyle=none;html=1;exitX=0;exitY=0.5;exitDx=0;exitDy=0;entryX=0.5;entryY=0.5;entryDx=0;entryDy=0;entryPerimeter=0;endArrow=none;endFill=0;" parent="1" source="22" target="3" edge="1">
                    <mxGeometry relative="1" as="geometry"/>
                </mxCell>
                <mxCell id="31" style="edgeStyle=none;html=1;exitX=0;exitY=0.5;exitDx=0;exitDy=0;entryX=0.5;entryY=0.5;entryDx=0;entryDy=0;entryPerimeter=0;endArrow=none;endFill=0;" parent="1" source="18" target="6" edge="1">
                    <mxGeometry relative="1" as="geometry"/>
                </mxCell>
            </root>
        </mxGraphModel>
    </diagram>
    <diagram id="rypsGfmKhqTktz11J_mc" name="Subdomínio - Catálogo">
        <mxGraphModel dx="788" dy="1032" grid="1" gridSize="10" guides="1" tooltips="1" connect="1" arrows="1" fold="1" page="1" pageScale="1" pageWidth="850" pageHeight="1100" math="0" shadow="0">
            <root>
                <mxCell id="0"/>
                <mxCell id="1" parent="0"/>
                <mxCell id="T4--CJMa48c0qfXnnW2e-1" value="Subdomínio - Catálogo" style="shape=umlFrame;whiteSpace=wrap;html=1;width=140;height=30;boundedLbl=1;verticalAlign=middle;align=left;spacingLeft=5;" parent="1" vertex="1">
                    <mxGeometry x="180" y="40" width="1030" height="840" as="geometry"/>
                </mxCell>
                <mxCell id="96IXisAslBwaYFMeWer2-1" value="Administrador" style="shape=umlActor;verticalLabelPosition=bottom;verticalAlign=top;html=1;" parent="1" vertex="1">
                    <mxGeometry x="80" y="310" width="30" height="60" as="geometry"/>
                </mxCell>
                <mxCell id="4TjPbdZdA7CzCGucudYE-1" value="" style="shape=ellipse;container=1;horizontal=1;horizontalStack=0;resizeParent=1;resizeParentMax=0;resizeLast=0;html=1;dashed=0;collapsible=0;" parent="1" vertex="1">
                    <mxGeometry x="205" y="515" width="215" height="70" as="geometry"/>
                </mxCell>
                <mxCell id="4TjPbdZdA7CzCGucudYE-2" value="Gerenciar Produto" style="html=1;strokeColor=none;fillColor=none;align=center;verticalAlign=middle;rotatable=0;" parent="4TjPbdZdA7CzCGucudYE-1" vertex="1">
                    <mxGeometry y="26.25" width="215.00000000000003" height="17.5" as="geometry"/>
                </mxCell>
                <mxCell id="sRPVzwaCnVZ1BMSWF7ec-1" value="" style="shape=ellipse;container=1;horizontal=1;horizontalStack=0;resizeParent=1;resizeParentMax=0;resizeLast=0;html=1;dashed=0;collapsible=0;" parent="1" vertex="1">
                    <mxGeometry x="210" y="110" width="210" height="70" as="geometry"/>
                </mxCell>
                <mxCell id="sRPVzwaCnVZ1BMSWF7ec-2" value="Gerenciar&amp;nbsp; Categoria" style="html=1;strokeColor=none;fillColor=none;align=center;verticalAlign=middle;rotatable=0;" parent="sRPVzwaCnVZ1BMSWF7ec-1" vertex="1">
                    <mxGeometry y="26.25" width="210.00000000000003" height="17.5" as="geometry"/>
                </mxCell>
                <mxCell id="sRPVzwaCnVZ1BMSWF7ec-3" value="" style="shape=ellipse;container=1;horizontal=1;horizontalStack=0;resizeParent=1;resizeParentMax=0;resizeLast=0;html=1;dashed=0;collapsible=0;" parent="1" vertex="1">
                    <mxGeometry x="520" y="60" width="190" height="60" as="geometry"/>
                </mxCell>
                <mxCell id="sRPVzwaCnVZ1BMSWF7ec-4" value="Criar&amp;nbsp; Categoria" style="html=1;strokeColor=none;fillColor=none;align=center;verticalAlign=middle;rotatable=0;" parent="sRPVzwaCnVZ1BMSWF7ec-3" vertex="1">
                    <mxGeometry y="22.5" width="190.00000000000003" height="15" as="geometry"/>
                </mxCell>
                <mxCell id="sRPVzwaCnVZ1BMSWF7ec-5" value="&amp;lt;&amp;lt;extend&amp;gt;&amp;gt;" style="html=1;verticalAlign=bottom;labelBackgroundColor=none;endArrow=open;endFill=0;dashed=1;exitX=0;exitY=0.75;exitDx=0;exitDy=0;entryX=1;entryY=0.5;entryDx=0;entryDy=0;" parent="1" source="sRPVzwaCnVZ1BMSWF7ec-4" target="sRPVzwaCnVZ1BMSWF7ec-2" edge="1">
                    <mxGeometry width="160" relative="1" as="geometry">
                        <mxPoint x="420" y="490" as="sourcePoint"/>
                        <mxPoint x="580" y="490" as="targetPoint"/>
                    </mxGeometry>
                </mxCell>
                <mxCell id="sRPVzwaCnVZ1BMSWF7ec-6" value="" style="shape=ellipse;container=1;horizontal=1;horizontalStack=0;resizeParent=1;resizeParentMax=0;resizeLast=0;html=1;dashed=0;collapsible=0;" parent="1" vertex="1">
                    <mxGeometry x="520" y="130" width="190" height="60" as="geometry"/>
                </mxCell>
                <mxCell id="sRPVzwaCnVZ1BMSWF7ec-7" value="Recuperar&amp;nbsp; Categoria" style="html=1;strokeColor=none;fillColor=none;align=center;verticalAlign=middle;rotatable=0;" parent="sRPVzwaCnVZ1BMSWF7ec-6" vertex="1">
                    <mxGeometry y="22.5" width="190.00000000000003" height="15" as="geometry"/>
                </mxCell>
                <mxCell id="sRPVzwaCnVZ1BMSWF7ec-8" value="" style="shape=ellipse;container=1;horizontal=1;horizontalStack=0;resizeParent=1;resizeParentMax=0;resizeLast=0;html=1;dashed=0;collapsible=0;" parent="1" vertex="1">
                    <mxGeometry x="520" y="200" width="190" height="60" as="geometry"/>
                </mxCell>
                <mxCell id="sRPVzwaCnVZ1BMSWF7ec-9" value="Atualizar&amp;nbsp; Categoria" style="html=1;strokeColor=none;fillColor=none;align=center;verticalAlign=middle;rotatable=0;" parent="sRPVzwaCnVZ1BMSWF7ec-8" vertex="1">
                    <mxGeometry y="22.5" width="190.00000000000003" height="15" as="geometry"/>
                </mxCell>
                <mxCell id="sRPVzwaCnVZ1BMSWF7ec-10" value="" style="shape=ellipse;container=1;horizontal=1;horizontalStack=0;resizeParent=1;resizeParentMax=0;resizeLast=0;html=1;dashed=0;collapsible=0;" parent="1" vertex="1">
                    <mxGeometry x="520" y="270" width="190" height="60" as="geometry"/>
                </mxCell>
                <mxCell id="sRPVzwaCnVZ1BMSWF7ec-11" value="Deletar&amp;nbsp; Categoria" style="html=1;strokeColor=none;fillColor=none;align=center;verticalAlign=middle;rotatable=0;" parent="sRPVzwaCnVZ1BMSWF7ec-10" vertex="1">
                    <mxGeometry y="22.5" width="190.00000000000003" height="15" as="geometry"/>
                </mxCell>
                <mxCell id="sRPVzwaCnVZ1BMSWF7ec-12" value="&amp;lt;&amp;lt;extend&amp;gt;&amp;gt;" style="html=1;verticalAlign=bottom;labelBackgroundColor=none;endArrow=open;endFill=0;dashed=1;exitX=0;exitY=0.75;exitDx=0;exitDy=0;entryX=1;entryY=0.75;entryDx=0;entryDy=0;" parent="1" source="sRPVzwaCnVZ1BMSWF7ec-7" target="sRPVzwaCnVZ1BMSWF7ec-2" edge="1">
                    <mxGeometry width="160" relative="1" as="geometry">
                        <mxPoint x="530" y="103.74999999999989" as="sourcePoint"/>
                        <mxPoint x="430" y="155" as="targetPoint"/>
                    </mxGeometry>
                </mxCell>
                <mxCell id="sRPVzwaCnVZ1BMSWF7ec-13" value="&amp;lt;&amp;lt;extend&amp;gt;&amp;gt;" style="html=1;verticalAlign=bottom;labelBackgroundColor=none;endArrow=open;endFill=0;dashed=1;exitX=0;exitY=0.5;exitDx=0;exitDy=0;entryX=0.98;entryY=0.729;entryDx=0;entryDy=0;entryPerimeter=0;" parent="1" source="sRPVzwaCnVZ1BMSWF7ec-9" target="sRPVzwaCnVZ1BMSWF7ec-1" edge="1">
                    <mxGeometry width="160" relative="1" as="geometry">
                        <mxPoint x="530" y="173.75" as="sourcePoint"/>
                        <mxPoint x="430" y="159.375" as="targetPoint"/>
                    </mxGeometry>
                </mxCell>
                <mxCell id="sRPVzwaCnVZ1BMSWF7ec-14" value="&amp;lt;&amp;lt;extend&amp;gt;&amp;gt;" style="html=1;verticalAlign=bottom;labelBackgroundColor=none;endArrow=open;endFill=0;dashed=1;exitX=0;exitY=0.75;exitDx=0;exitDy=0;entryX=0.946;entryY=0.763;entryDx=0;entryDy=0;entryPerimeter=0;" parent="1" source="sRPVzwaCnVZ1BMSWF7ec-11" target="sRPVzwaCnVZ1BMSWF7ec-1" edge="1">
                    <mxGeometry width="160" relative="1" as="geometry">
                        <mxPoint x="530" y="240" as="sourcePoint"/>
                        <mxPoint x="425.79999999999995" y="171.02999999999997" as="targetPoint"/>
                    </mxGeometry>
                </mxCell>
                <mxCell id="sRPVzwaCnVZ1BMSWF7ec-15" style="edgeStyle=none;html=1;exitX=0;exitY=0.5;exitDx=0;exitDy=0;entryX=0.5;entryY=0.5;entryDx=0;entryDy=0;entryPerimeter=0;endArrow=none;endFill=0;" parent="1" source="sRPVzwaCnVZ1BMSWF7ec-2" target="96IXisAslBwaYFMeWer2-1" edge="1">
                    <mxGeometry relative="1" as="geometry"/>
                </mxCell>
                <mxCell id="sRPVzwaCnVZ1BMSWF7ec-16" value="" style="shape=ellipse;container=1;horizontal=1;horizontalStack=0;resizeParent=1;resizeParentMax=0;resizeLast=0;html=1;dashed=0;collapsible=0;" parent="1" vertex="1">
                    <mxGeometry x="750" y="100" width="170" height="50" as="geometry"/>
                </mxCell>
                <mxCell id="sRPVzwaCnVZ1BMSWF7ec-17" value="Recuperar&amp;nbsp; Categoria por ID" style="html=1;strokeColor=none;fillColor=none;align=center;verticalAlign=middle;rotatable=0;" parent="sRPVzwaCnVZ1BMSWF7ec-16" vertex="1">
                    <mxGeometry y="18.75" width="170.00000000000003" height="12.5" as="geometry"/>
                </mxCell>
                <mxCell id="sRPVzwaCnVZ1BMSWF7ec-18" value="" style="shape=ellipse;container=1;horizontal=1;horizontalStack=0;resizeParent=1;resizeParentMax=0;resizeLast=0;html=1;dashed=0;collapsible=0;" parent="1" vertex="1">
                    <mxGeometry x="740" y="160" width="180" height="50" as="geometry"/>
                </mxCell>
                <mxCell id="sRPVzwaCnVZ1BMSWF7ec-19" value="Recuperar&amp;nbsp; Categoria por filtro" style="html=1;strokeColor=none;fillColor=none;align=center;verticalAlign=middle;rotatable=0;" parent="sRPVzwaCnVZ1BMSWF7ec-18" vertex="1">
                    <mxGeometry y="18.75" width="180.00000000000003" height="12.5" as="geometry"/>
                </mxCell>
                <mxCell id="sRPVzwaCnVZ1BMSWF7ec-20" style="edgeStyle=none;html=1;exitX=0;exitY=0.25;exitDx=0;exitDy=0;entryX=1;entryY=0.25;entryDx=0;entryDy=0;endArrow=block;endFill=1;" parent="1" source="sRPVzwaCnVZ1BMSWF7ec-17" target="sRPVzwaCnVZ1BMSWF7ec-7" edge="1">
                    <mxGeometry relative="1" as="geometry"/>
                </mxCell>
                <mxCell id="sRPVzwaCnVZ1BMSWF7ec-21" style="edgeStyle=none;html=1;exitX=0;exitY=0.5;exitDx=0;exitDy=0;entryX=1;entryY=0.75;entryDx=0;entryDy=0;endArrow=block;endFill=1;" parent="1" source="sRPVzwaCnVZ1BMSWF7ec-19" target="sRPVzwaCnVZ1BMSWF7ec-7" edge="1">
                    <mxGeometry relative="1" as="geometry"/>
                </mxCell>
                <mxCell id="sRPVzwaCnVZ1BMSWF7ec-22" value="" style="shape=ellipse;container=1;horizontal=1;horizontalStack=0;resizeParent=1;resizeParentMax=0;resizeLast=0;html=1;dashed=0;collapsible=0;" parent="1" vertex="1">
                    <mxGeometry x="520" y="400" width="190" height="60" as="geometry"/>
                </mxCell>
                <mxCell id="sRPVzwaCnVZ1BMSWF7ec-23" value="Criar&amp;nbsp; Produto" style="html=1;strokeColor=none;fillColor=none;align=center;verticalAlign=middle;rotatable=0;" parent="sRPVzwaCnVZ1BMSWF7ec-22" vertex="1">
                    <mxGeometry y="22.5" width="190.00000000000003" height="15" as="geometry"/>
                </mxCell>
                <mxCell id="sRPVzwaCnVZ1BMSWF7ec-24" value="" style="shape=ellipse;container=1;horizontal=1;horizontalStack=0;resizeParent=1;resizeParentMax=0;resizeLast=0;html=1;dashed=0;collapsible=0;" parent="1" vertex="1">
                    <mxGeometry x="520" y="470" width="190" height="60" as="geometry"/>
                </mxCell>
                <mxCell id="sRPVzwaCnVZ1BMSWF7ec-25" value="Recuperar&amp;nbsp; Produto" style="html=1;strokeColor=none;fillColor=none;align=center;verticalAlign=middle;rotatable=0;" parent="sRPVzwaCnVZ1BMSWF7ec-24" vertex="1">
                    <mxGeometry y="22.5" width="190.00000000000003" height="15" as="geometry"/>
                </mxCell>
                <mxCell id="sRPVzwaCnVZ1BMSWF7ec-26" value="" style="shape=ellipse;container=1;horizontal=1;horizontalStack=0;resizeParent=1;resizeParentMax=0;resizeLast=0;html=1;dashed=0;collapsible=0;" parent="1" vertex="1">
                    <mxGeometry x="520" y="540" width="190" height="60" as="geometry"/>
                </mxCell>
                <mxCell id="sRPVzwaCnVZ1BMSWF7ec-27" value="Atualizar&amp;nbsp; Produto" style="html=1;strokeColor=none;fillColor=none;align=center;verticalAlign=middle;rotatable=0;" parent="sRPVzwaCnVZ1BMSWF7ec-26" vertex="1">
                    <mxGeometry y="22.5" width="190.00000000000003" height="15" as="geometry"/>
                </mxCell>
                <mxCell id="sRPVzwaCnVZ1BMSWF7ec-28" value="" style="shape=ellipse;container=1;horizontal=1;horizontalStack=0;resizeParent=1;resizeParentMax=0;resizeLast=0;html=1;dashed=0;collapsible=0;" parent="1" vertex="1">
                    <mxGeometry x="520" y="610" width="190" height="60" as="geometry"/>
                </mxCell>
                <mxCell id="sRPVzwaCnVZ1BMSWF7ec-29" value="Deletar&amp;nbsp; Produto" style="html=1;strokeColor=none;fillColor=none;align=center;verticalAlign=middle;rotatable=0;" parent="sRPVzwaCnVZ1BMSWF7ec-28" vertex="1">
                    <mxGeometry y="22.5" width="190.00000000000003" height="15" as="geometry"/>
                </mxCell>
                <mxCell id="sRPVzwaCnVZ1BMSWF7ec-31" value="&amp;lt;&amp;lt;extend&amp;gt;&amp;gt;" style="html=1;verticalAlign=bottom;labelBackgroundColor=none;endArrow=open;endFill=0;dashed=1;exitX=0;exitY=0.5;exitDx=0;exitDy=0;entryX=0.919;entryY=0.199;entryDx=0;entryDy=0;entryPerimeter=0;" parent="1" source="sRPVzwaCnVZ1BMSWF7ec-23" target="4TjPbdZdA7CzCGucudYE-1" edge="1">
                    <mxGeometry width="160" relative="1" as="geometry">
                        <mxPoint x="310" y="460" as="sourcePoint"/>
                        <mxPoint x="470" y="460" as="targetPoint"/>
                    </mxGeometry>
                </mxCell>
                <mxCell id="sRPVzwaCnVZ1BMSWF7ec-32" value="&amp;lt;&amp;lt;extend&amp;gt;&amp;gt;" style="html=1;verticalAlign=bottom;labelBackgroundColor=none;endArrow=open;endFill=0;dashed=1;exitX=0;exitY=1;exitDx=0;exitDy=0;entryX=1;entryY=0;entryDx=0;entryDy=0;" parent="1" source="sRPVzwaCnVZ1BMSWF7ec-25" target="4TjPbdZdA7CzCGucudYE-2" edge="1">
                    <mxGeometry width="160" relative="1" as="geometry">
                        <mxPoint x="530" y="440" as="sourcePoint"/>
                        <mxPoint x="412.58500000000015" y="538.9299999999998" as="targetPoint"/>
                    </mxGeometry>
                </mxCell>
                <mxCell id="sRPVzwaCnVZ1BMSWF7ec-33" value="&amp;lt;&amp;lt;extend&amp;gt;&amp;gt;" style="html=1;verticalAlign=bottom;labelBackgroundColor=none;endArrow=open;endFill=0;dashed=1;exitX=0;exitY=0.75;exitDx=0;exitDy=0;entryX=1;entryY=0.5;entryDx=0;entryDy=0;" parent="1" source="sRPVzwaCnVZ1BMSWF7ec-27" target="4TjPbdZdA7CzCGucudYE-2" edge="1">
                    <mxGeometry width="160" relative="1" as="geometry">
                        <mxPoint x="530.0000000000002" y="517.5" as="sourcePoint"/>
                        <mxPoint x="422.58500000000004" y="548.9299999999998" as="targetPoint"/>
                    </mxGeometry>
                </mxCell>
                <mxCell id="sRPVzwaCnVZ1BMSWF7ec-34" value="&amp;lt;&amp;lt;extend&amp;gt;&amp;gt;" style="html=1;verticalAlign=bottom;labelBackgroundColor=none;endArrow=open;endFill=0;dashed=1;exitX=0;exitY=0.5;exitDx=0;exitDy=0;entryX=1;entryY=1;entryDx=0;entryDy=0;" parent="1" source="sRPVzwaCnVZ1BMSWF7ec-29" target="4TjPbdZdA7CzCGucudYE-2" edge="1">
                    <mxGeometry width="160" relative="1" as="geometry">
                        <mxPoint x="530" y="583.75" as="sourcePoint"/>
                        <mxPoint x="432.58500000000004" y="558.9299999999998" as="targetPoint"/>
                    </mxGeometry>
                </mxCell>
                <mxCell id="sRPVzwaCnVZ1BMSWF7ec-36" style="edgeStyle=none;html=1;exitX=0;exitY=0.5;exitDx=0;exitDy=0;entryX=0.5;entryY=0.5;entryDx=0;entryDy=0;entryPerimeter=0;endArrow=none;endFill=0;" parent="1" source="4TjPbdZdA7CzCGucudYE-2" target="96IXisAslBwaYFMeWer2-1" edge="1">
                    <mxGeometry relative="1" as="geometry"/>
                </mxCell>
                <mxCell id="sRPVzwaCnVZ1BMSWF7ec-39" value="" style="shape=ellipse;container=1;horizontal=1;horizontalStack=0;resizeParent=1;resizeParentMax=0;resizeLast=0;html=1;dashed=0;collapsible=0;" parent="1" vertex="1">
                    <mxGeometry x="760" y="437.5" width="170" height="50" as="geometry"/>
                </mxCell>
                <mxCell id="sRPVzwaCnVZ1BMSWF7ec-40" value="Recuperar&amp;nbsp; Produto por ID" style="html=1;strokeColor=none;fillColor=none;align=center;verticalAlign=middle;rotatable=0;" parent="sRPVzwaCnVZ1BMSWF7ec-39" vertex="1">
                    <mxGeometry y="18.75" width="170.00000000000003" height="12.5" as="geometry"/>
                </mxCell>
                <mxCell id="sRPVzwaCnVZ1BMSWF7ec-41" value="" style="shape=ellipse;container=1;horizontal=1;horizontalStack=0;resizeParent=1;resizeParentMax=0;resizeLast=0;html=1;dashed=0;collapsible=0;" parent="1" vertex="1">
                    <mxGeometry x="755" y="500" width="180" height="50" as="geometry"/>
                </mxCell>
                <mxCell id="sRPVzwaCnVZ1BMSWF7ec-42" value="Recuperar&amp;nbsp; Produto por filtro" style="html=1;strokeColor=none;fillColor=none;align=center;verticalAlign=middle;rotatable=0;" parent="sRPVzwaCnVZ1BMSWF7ec-41" vertex="1">
                    <mxGeometry y="18.75" width="180.00000000000003" height="12.5" as="geometry"/>
                </mxCell>
                <mxCell id="sRPVzwaCnVZ1BMSWF7ec-43" style="edgeStyle=none;html=1;exitX=0;exitY=0.5;exitDx=0;exitDy=0;entryX=1;entryY=0.25;entryDx=0;entryDy=0;endArrow=block;endFill=1;" parent="1" source="sRPVzwaCnVZ1BMSWF7ec-40" target="sRPVzwaCnVZ1BMSWF7ec-25" edge="1">
                    <mxGeometry relative="1" as="geometry"/>
                </mxCell>
                <mxCell id="sRPVzwaCnVZ1BMSWF7ec-44" style="edgeStyle=none;html=1;exitX=0;exitY=0.5;exitDx=0;exitDy=0;entryX=1;entryY=1;entryDx=0;entryDy=0;endArrow=block;endFill=1;" parent="1" source="sRPVzwaCnVZ1BMSWF7ec-42" target="sRPVzwaCnVZ1BMSWF7ec-25" edge="1">
                    <mxGeometry relative="1" as="geometry"/>
                </mxCell>
                <mxCell id="sRPVzwaCnVZ1BMSWF7ec-45" value="" style="shape=ellipse;container=1;horizontal=1;horizontalStack=0;resizeParent=1;resizeParentMax=0;resizeLast=0;html=1;dashed=0;collapsible=0;" parent="1" vertex="1">
                    <mxGeometry x="980" y="500" width="200" height="50" as="geometry"/>
                </mxCell>
                <mxCell id="sRPVzwaCnVZ1BMSWF7ec-46" value="Recuperar&amp;nbsp; Produto por Categoria" style="html=1;strokeColor=none;fillColor=none;align=center;verticalAlign=middle;rotatable=0;" parent="sRPVzwaCnVZ1BMSWF7ec-45" vertex="1">
                    <mxGeometry y="18.75" width="200.00000000000003" height="12.5" as="geometry"/>
                </mxCell>
                <mxCell id="sRPVzwaCnVZ1BMSWF7ec-47" style="edgeStyle=none;html=1;exitX=0;exitY=0.5;exitDx=0;exitDy=0;entryX=1;entryY=0.5;entryDx=0;entryDy=0;endArrow=block;endFill=1;" parent="1" source="sRPVzwaCnVZ1BMSWF7ec-46" target="sRPVzwaCnVZ1BMSWF7ec-42" edge="1">
                    <mxGeometry relative="1" as="geometry"/>
                </mxCell>
                <mxCell id="sRPVzwaCnVZ1BMSWF7ec-48" value="" style="shape=ellipse;container=1;horizontal=1;horizontalStack=0;resizeParent=1;resizeParentMax=0;resizeLast=0;html=1;dashed=0;collapsible=0;" parent="1" vertex="1">
                    <mxGeometry x="520" y="760" width="190" height="60" as="geometry"/>
                </mxCell>
                <mxCell id="sRPVzwaCnVZ1BMSWF7ec-49" value="Adicionar Categoria" style="html=1;strokeColor=none;fillColor=none;align=center;verticalAlign=middle;rotatable=0;" parent="sRPVzwaCnVZ1BMSWF7ec-48" vertex="1">
                    <mxGeometry y="22.5" width="190.00000000000003" height="15" as="geometry"/>
                </mxCell>
                <mxCell id="sRPVzwaCnVZ1BMSWF7ec-50" value="&amp;lt;&amp;lt;extend&amp;gt;&amp;gt;" style="html=1;verticalAlign=bottom;labelBackgroundColor=none;endArrow=open;endFill=0;dashed=1;exitX=0;exitY=0.75;exitDx=0;exitDy=0;entryX=0.936;entryY=0.791;entryDx=0;entryDy=0;entryPerimeter=0;" parent="1" source="sRPVzwaCnVZ1BMSWF7ec-49" target="4TjPbdZdA7CzCGucudYE-1" edge="1">
                    <mxGeometry width="160" relative="1" as="geometry">
                        <mxPoint x="530" y="650" as="sourcePoint"/>
                        <mxPoint x="429.9999999999998" y="568.75" as="targetPoint"/>
                    </mxGeometry>
                </mxCell>
            </root>
        </mxGraphModel>
    </diagram>
</mxfile>